<?xml version="1.0" standalone="no"?>
<!DOCTYPE svg PUBLIC "-//W3C//DTD SVG 20010904//EN"
 "http://www.w3.org/TR/2001/REC-SVG-20010904/DTD/svg10.dtd">
<svg version="1.0" xmlns="http://www.w3.org/2000/svg"
 width="845.000000pt" height="446.000000pt" viewBox="0 0 845.000000 446.000000"
 preserveAspectRatio="xMidYMid meet">
<metadata>
Created by potrace 1.16, written by Peter Selinger 2001-2019
</metadata>
<g transform="translate(0.000000,446.000000) scale(0.100000,-0.100000)"
fill="#000000" stroke="none">
<path d="M20 2235 l0 -2195 1785 0 1785 0 0 530 0 530 -1170 0 -1170 0 0 330
0 330 1045 0 1045 0 0 495 0 495 -1045 0 -1045 0 0 310 0 310 1155 0 1155 0 0
530 0 530 -1770 0 -1770 0 0 -2195z"/>
<path d="M4040 4419 c0 -6 321 -491 714 -1078 l713 -1067 -743 -1103 c-409
-606 -744 -1109 -744 -1117 0 -12 100 -14 694 -14 l694 0 408 637 c223 351
410 642 414 646 4 4 191 -282 416 -637 l409 -646 710 3 c624 2 710 4 709 17
-1 8 -332 508 -736 1110 -404 602 -737 1100 -741 1106 -4 7 309 481 708 1074
393 585 712 1067 709 1072 -3 4 -317 8 -698 8 l-693 0 -381 -601 -381 -601
-28 44 c-15 24 -185 295 -378 601 l-350 557 -712 0 c-507 0 -713 -3 -713 -11z"/>
</g>
</svg>
